<?xml version="1.0" encoding="UTF-8" standalone="no"?>
<!-- Created with Inkscape (http://www.inkscape.org/) -->

<svg
   width="120mm"
   height="120mm"
   viewBox="-60 -60 120 120"
   sodipodi:docname="ES.svg"
   version="1.1"
   id="svg1464"
   xml:space="preserve"
   inkscape:export-filename="ES-red-yellow.svg"
   inkscape:export-xdpi="96"
   inkscape:export-ydpi="96"
   inkscape:version="1.2 (dc2aedaf03, 2022-05-15)"
   xmlns:inkscape="http://www.inkscape.org/namespaces/inkscape"
   xmlns:sodipodi="http://sodipodi.sourceforge.net/DTD/sodipodi-0.dtd"
   xmlns="http://www.w3.org/2000/svg"
   xmlns:svg="http://www.w3.org/2000/svg"
   xmlns:rdf="http://www.w3.org/1999/02/22-rdf-syntax-ns#"
   xmlns:cc="http://creativecommons.org/ns#"
   xmlns:dc="http://purl.org/dc/elements/1.1/"><defs
     id="defs1466" /><sodipodi:namedview
     pagecolor="#ffffff"
     bordercolor="#666666"
     borderopacity="1.0"
     inkscape:pageopacity="0.0"
     inkscape:pageshadow="2"
     inkscape:zoom="0.45254834"
     inkscape:cx="227.6"
     inkscape:cy="470.66795"
     inkscape:document-units="mm"
     inkscape:current-layer="Template"
     showgrid="false"
     units="mm"
     showguides="true"
     inkscape:guide-bbox="true"
     inkscape:snap-global="true"
     inkscape:snap-bbox="true"
     inkscape:snap-bbox-midpoints="true"
     inkscape:window-width="2560"
     inkscape:window-height="1377"
     inkscape:window-x="-8"
     inkscape:window-y="-8"
     inkscape:window-maximized="1"
     inkscape:bbox-paths="true"
     inkscape:bbox-nodes="true"
     inkscape:snap-bbox-edge-midpoints="true"
     inkscape:snap-grids="true"
     id="namedview1454"
     inkscape:showpageshadow="2"
     inkscape:pagecheckerboard="0"
     inkscape:deskcolor="#d1d1d1"><inkscape:grid
       type="xygrid"
       id="grid3072"
       empspacing="10"
       visible="true"
       enabled="true"
       snapvisiblegridlinesonly="true"
       units="mm"
       dotted="false"
       spacingx="0.1mm"
       spacingy="0.1mm" /></sodipodi:namedview><metadata
     id="metadata2822"><rdf:RDF><cc:Work
         rdf:about=""><dc:format>image/svg+xml</dc:format><dc:type
           rdf:resource="http://purl.org/dc/dcmitype/StillImage" /></cc:Work></rdf:RDF></metadata><g
     inkscape:label="Layer 1"
     inkscape:groupmode="layer"
     id="Template"
     style="fill:none;stroke:black;stroke-width:0.05"><g
       id="g2672"
       style="fill:#dcb33b;fill-opacity:1"><path
         style="font-size:111.292px;font-family:'Franklin Gothic Heavy';-inkscape-font-specification:'Franklin Gothic Heavy, Normal';fill:#dcb33b;fill-opacity:1;stroke:none;stroke-width:35.053;stroke-dasharray:none"
         d="m -22.78315,21.19246 c -5.483685,6.966077 -9.903403,13.693544 -13.278776,19.379179 H -5.5387248 V 21.19246 Z"
         id="path2660" /><path
         style="font-size:111.292px;fill:#dcb33b;fill-opacity:1;stroke:none;stroke-width:35.053;stroke-dasharray:none"
         d="M 20.725305,-15.862642 C 13.818432,-12.339975 7.4822965,-8.1567299 1.706311,-3.6034424 2.3984685,-2.2102706 3.2259963,-0.87880371 4.1976318,0.38649495 7.5756273,4.7854416 15.20934,8.3521361 27.09856,11.086617 c 3.113054,0.752973 5.265769,1.624591 6.458003,2.615344 1.225351,0.951124 1.838131,2.298921 1.838131,4.042648 0,3.328932 -2.616553,4.992976 -7.849133,4.992976 -6.722874,0 -10.895854,-3.269212 -12.518616,-9.808186 l -19.3238851,4.160986 c 3.87475952,16.486143 14.075033,24.72924 30.6007161,24.72924 9.041106,0 16.343432,-2.536178 21.90719,-7.608838 5.563757,-5.11229 8.345744,-11.770017 8.345744,-19.973458 0,-5.1915494 -1.142584,-9.6897722 -3.427698,-13.49426666 C 50.843897,-3.1010622 47.995944,-5.8159374 44.584831,-7.4011434 41.173717,-8.9863494 35.41081,-10.809293 27.296997,-12.87006 c -2.947466,-0.752974 -4.934231,-1.5454 -5.960876,-2.377633 -0.230799,-0.187093 -0.431902,-0.393808 -0.610816,-0.614949 z"
         id="path2667" /><path
         style="font-size:111.292px;fill:#dcb33b;fill-opacity:1;stroke:none;stroke-width:35.053;stroke-dasharray:none"
         d="m 53.113509,-25.970553 c -6.797945,0.878054 -13.223413,2.436206 -19.283061,4.526339 1.607909,1.349257 2.82522,3.275256 3.650424,5.780526 l 17.237707,-6.241996 c -0.479327,-1.433967 -1.016402,-2.785786 -1.60507,-4.064869 z"
         id="path2665" /></g><g
       id="g2676"
       style="fill:#722431;fill-opacity:1"><path
         style="font-size:111.292px;font-family:'Franklin Gothic Heavy';-inkscape-font-specification:'Franklin Gothic Heavy, Normal';fill:#722431;fill-opacity:1;stroke:none;stroke-width:35.053;stroke-dasharray:none"
         d="m -56.556799,-40.571212 v 81.142851 h 19.609139 c 3.686132,-7.169327 7.527892,-13.602337 11.467,-19.379179 H -36.139441 V 7.9359049 h 20.796147 c 1.309733,-1.522779 2.624503,-2.984561 3.942395,-4.3868123 V -10.075916 h -24.738542 v -11.770341 h 30.6007162 v -18.724955 z"
         id="path2623" /><path
         style="font-size:111.292px;fill:#722431;fill-opacity:1;stroke:none;stroke-width:35.053;stroke-dasharray:none"
         d="m 27.347123,-41.819714 c -9.10734,0 -16.09529,2.536178 -20.9635781,7.608838 -4.8351699,5.072658 -7.25278725,11.433421 -7.25278725,19.082039 0,2.765529 0.37063365,5.3612731 1.10174154,7.7922891 C 6.9627392,-12.838127 13.625448,-17.006914 19.962561,-20.180725 c 0.588926,-2.414903 2.797834,-3.627169 6.639388,-3.627169 0.455179,0 0.892728,0.02589 1.3224,0.06356 8.934176,-3.546367 16.886086,-5.224544 23.044071,-6.173783 -5.074988,-7.931737 -12.946888,-11.901599 -23.621297,-11.901599 z"
         id="path2625" /></g><text
       xml:space="preserve"
       style="font-size:78.8856px;font-family:'Franklin Gothic Heavy';-inkscape-font-specification:'Franklin Gothic Heavy, Normal';fill:#722431;fill-opacity:1;stroke:none;stroke-width:35.8609"
       x="123.57354"
       y="26.34651"
       id="text296"
       transform="scale(0.64341527,1.5542062)"><tspan
         sodipodi:role="line"
         id="tspan294"
         x="123.57354"
         y="26.34651"
         style="fill:#722431;fill-opacity:1;stroke:none;stroke-width:35.8609">Easy </tspan></text><text
       xml:space="preserve"
       style="font-size:97.5475px;font-family:'Franklin Gothic Heavy';-inkscape-font-specification:'Franklin Gothic Heavy, Normal';fill:#dcb33b;fill-opacity:1;stroke:none;stroke-width:44.3445"
       x="244.35303"
       y="32.333786"
       id="text2201"
       transform="scale(0.79047253,1.2650661)"><tspan
         sodipodi:role="line"
         id="tspan2199"
         style="stroke-width:44.3444"
         x="244.35303"
         y="32.333786">Speak</tspan></text><text
       xml:space="preserve"
       style="font-size:29.8799px;font-family:'Franklin Gothic Heavy';-inkscape-font-specification:'Franklin Gothic Heavy, Normal';fill:#722431;fill-opacity:1;stroke:none;stroke-width:13.5832"
       x="428.44318"
       y="-22.888876"
       id="text2274"
       transform="scale(0.95909756,1.0426468)"
       inkscape:export-filename="Es-red-yellow-long.svg"
       inkscape:export-xdpi="96"
       inkscape:export-ydpi="96"><tspan
         sodipodi:role="line"
         id="tspan2272"
         style="stroke-width:13.5832"
         x="428.44318"
         y="-22.888876">2.0</tspan></text></g></svg>
